<?xml version="1.0" encoding="UTF-8" standalone="no"?>
<svg width="201px" height="125px" viewBox="0 0 201 125" version="1.1" xmlns="http://www.w3.org/2000/svg" xmlns:xlink="http://www.w3.org/1999/xlink" xmlns:sketch="http://www.bohemiancoding.com/sketch/ns">
    <!-- Generator: Sketch 3.3.1 (12005) - http://www.bohemiancoding.com/sketch -->
    <title>Oval 1 + Oval 1 Copy 2 + Oval 1 Copy 3</title>
    <desc>Created with Sketch.</desc>
    <defs></defs>
    <g id="Page-1" stroke="none" stroke-width="1" fill="none" fill-rule="evenodd" sketch:type="MSPage">
        <g id="Oval-1-+-Oval-1-Copy-2-+-Oval-1-Copy-3" sketch:type="MSLayerGroup" transform="translate(0.000000, -8.000000)">
            <g id="Oval-1-+-Oval-1-Copy-2" transform="translate(104.157895, 78.234014) rotate(24.000000) translate(-104.157895, -78.234014) translate(57.157895, 13.734014)" fill="#000000" sketch:type="MSShapeGroup">
                <g transform="translate(0.000000, 0.000000)">
                    <path d="M36.0619,112.456992 C36.462171,106.7368 36.6755061,100.726674 36.6755061,94.527027 C36.6755061,56.1283103 28.4915807,25 18.3961972,25 C8.30081371,25 0.116888373,56.1283103 0.116888373,94.527027 C0.116888373,106.383682 0.89717222,117.547152 2.27307906,127.315061 C4.93831922,107.785642 10.1583693,94.8108108 18.3961972,94.8108108 C25.5699012,94.8108108 30.9158789,99.6911502 36.0619,112.456992 Z" id="Oval-1"></path>
                    <path d="M90.4303665,104.453593 C91.9990418,94.1950916 92.897451,82.2707022 92.897451,69.5481872 C92.897451,31.1494705 84.7135256,0.021160215 74.6181421,0.021160215 C64.5227586,0.021160215 56.3388333,31.1494705 56.3388333,69.5481872 C56.3388333,82.2707022 57.2372424,94.1950916 58.8059178,104.453593 C61.9717691,83.7501968 67.8676259,69.831971 74.6181421,69.831971 C81.3686584,69.831971 87.2645151,83.7501968 90.4303686,104.453606 Z" id="Oval-1-Copy-2"></path>
                </g>
            </g>
            <path d="M127.707158,106.900669 C128.320545,95.7231783 128.647466,83.9791461 128.647466,71.8647806 C128.647466,-3.1678893 116.10617,-63.9938864 100.635698,-63.9938864 C85.1652249,-63.9938864 72.6239288,-3.1678893 72.6239288,71.8647806 C72.6239288,95.0331719 73.8196595,116.84705 75.928141,135.933945 C80.0124361,97.7726593 88.0117996,72.4193057 100.635698,72.4193057 C111.6289,72.4193057 119.821239,81.9556894 127.707158,106.900669 Z" id="Oval-1-Copy-3" fill="#FFFFFF" sketch:type="MSShapeGroup" transform="translate(100.635698, 35.970029) rotate(89.000000) translate(-100.635698, -35.970029) "></path>
        </g>
    </g>
</svg>