<?xml version="1.0" encoding="UTF-8"?>
<svg viewBox="0 0 588 52" version="1.1" xmlns="http://www.w3.org/2000/svg" xmlns:xlink="http://www.w3.org/1999/xlink">
    <!-- Generator: Sketch 46.2 (44496) - http://www.bohemiancoding.com/sketch -->
    <title>logo</title>
    <desc>Created with Sketch.</desc>
    <defs></defs>
    <g id="Page-1" stroke="none" stroke-width="1" fill="none" fill-rule="evenodd">
        <path d="M272.798,29.729 L242.559,18.689 L272.798,7.24 L272.798,29.729 Z M228.214,18.775 L272.798,35.052 L272.798,46.041 L233.213,46.041 L233.213,51.041 L277.798,51.041 L277.798,0 L228.214,18.775 Z M587.5,2.438 C587.5,2.858 587.151,3.208 586.801,3.208 L583.651,3.208 C581.34,3.208 580.15,5.868 580.15,7.408 L580.15,36.111 C580.15,44.862 573.079,51.933 564.399,51.933 C555.648,51.933 548.576,44.862 548.576,36.111 L548.576,6.008 C548.576,4.398 547.317,3.208 545.777,3.208 L543.326,3.208 C542.906,3.208 542.626,2.858 542.626,2.438 C542.626,2.017 542.906,1.667 543.326,1.667 C545.986,1.667 548.717,1.948 551.377,1.948 C554.037,1.948 556.768,1.667 559.428,1.667 C559.777,1.667 560.128,2.017 560.128,2.438 C560.128,2.858 559.777,3.208 559.428,3.208 L556.978,3.208 C555.438,3.208 554.177,4.398 554.177,6.008 L554.177,36.041 C554.177,42.412 559.358,47.592 565.798,47.592 C572.099,47.592 577.35,42.412 577.35,36.041 L577.35,8.808 C577.35,5.377 576.089,3.208 573.849,3.208 L570.698,3.208 C570.278,3.208 569.999,2.858 569.999,2.438 C569.999,2.017 570.278,1.667 570.698,1.667 C573.36,1.667 576.02,1.948 578.68,1.948 C581.41,1.948 584.07,1.667 586.801,1.667 C587.151,1.667 587.5,2.017 587.5,2.438 L587.5,2.438 Z M507.627,30.23 L514.628,10.208 L521.839,30.23 L507.627,30.23 Z M538.431,49.693 C534.72,49.693 534.3,48.642 532.76,44.302 L517.708,1.948 L515.118,1.948 L500.067,44.302 C498.527,48.642 496.706,49.342 492.996,49.693 C492.646,49.693 492.296,50.042 492.296,50.462 C492.296,50.953 492.646,51.233 492.996,51.233 C495.727,51.233 498.036,50.953 500.767,50.953 C503.427,50.953 505.737,51.233 508.398,51.233 C508.818,51.233 509.098,50.953 509.098,50.462 C509.098,50.042 508.818,49.693 508.398,49.693 L505.247,49.483 C503.007,49.342 501.887,47.312 502.727,44.092 L506.717,32.75 L522.749,32.75 L526.81,44.092 C527.65,47.312 528.42,49.342 526.18,49.483 L523.029,49.693 C522.609,49.693 522.329,50.042 522.329,50.462 C522.329,50.953 522.609,51.233 523.029,51.233 C525.69,51.233 527.999,50.953 530.66,50.953 C533.39,50.953 535.7,51.233 538.431,51.233 C538.78,51.233 539.131,50.953 539.131,50.462 C539.131,50.042 538.78,49.693 538.431,49.693 L538.431,49.693 Z M484.6,37.231 L481.729,51.233 C476.619,51.233 471.649,50.953 466.537,50.953 C460.727,50.953 454.846,51.233 449.036,51.233 C448.686,51.233 448.336,50.882 448.336,50.462 C448.336,50.042 448.686,49.693 449.036,49.693 L451.486,49.693 C453.027,49.693 454.286,48.432 454.286,46.892 L454.286,6.008 C454.286,4.468 453.027,3.208 451.486,3.208 L449.036,3.208 C448.686,3.208 448.336,2.927 448.336,2.438 C448.336,2.017 448.686,1.667 449.036,1.667 C454.846,1.667 460.727,1.948 466.537,1.948 C471.649,1.948 476.619,1.667 481.729,1.667 L484.6,15.668 C484.6,16.019 484.319,16.369 483.9,16.369 C483.409,16.369 483.199,16.159 483.06,15.669 C480.959,7.688 475.289,4.398 468.569,4.398 C462.547,4.398 459.887,4.328 459.887,4.818 L459.887,24.56 L468.078,24.56 C471.508,24.56 473.678,22.6 473.678,19.589 L473.678,17.839 C473.678,17.419 474.028,17.139 474.448,17.139 C474.939,17.139 475.219,17.419 475.219,17.839 L475.219,33.941 C475.219,34.291 474.939,34.641 474.448,34.641 C474.028,34.641 473.678,34.291 473.678,33.941 L473.678,32.191 C473.678,29.041 471.508,27.22 468.078,27.22 L459.887,27.22 L459.887,41.082 C459.887,47.873 462.547,48.502 468.569,48.502 C475.429,48.502 481.029,45.072 483.06,37.231 C483.199,36.741 483.409,36.531 483.9,36.531 C484.319,36.531 484.6,36.881 484.6,37.231 L484.6,37.231 Z M408.927,4.888 C408.927,4.538 410.117,4.538 412.708,4.468 L418.168,4.328 C424.679,4.188 429.089,9.088 429.089,14.338 C429.089,19.519 424.679,24.56 418.168,24.56 L408.927,24.56 L408.927,4.888 Z M436.37,49.413 C433.99,48.642 431.469,46.333 428.949,43.251 L415.928,27.081 L420.968,27.081 C429.509,27.081 435.39,20.919 435.39,14.338 C435.39,7.758 429.509,1.738 420.968,1.807 L406.267,1.948 C403.536,1.948 400.806,1.667 398.076,1.667 C397.726,1.667 397.376,2.017 397.376,2.438 C397.376,2.858 397.726,3.208 398.076,3.208 L400.526,3.208 C402.067,3.208 403.326,4.398 403.326,6.008 L403.326,46.892 C403.326,48.432 402.067,49.693 400.526,49.693 L398.076,49.693 C397.726,49.693 397.376,49.972 397.376,50.462 C397.376,50.882 397.726,51.233 398.076,51.233 C400.806,51.163 403.817,50.953 406.267,50.953 C408.927,50.953 411.517,51.163 414.178,51.233 C414.598,51.233 414.878,50.882 414.878,50.462 C414.878,49.972 414.598,49.693 414.178,49.693 L411.727,49.693 C410.187,49.693 408.927,48.432 408.927,46.892 L408.927,27.5 L428.109,50.953 L438.12,51.233 C438.54,51.233 439.52,51.373 439.52,50.533 C439.52,49.132 437.91,49.903 436.37,49.413 L436.37,49.413 Z M388.281,2.438 C388.281,2.858 387.931,3.208 387.581,3.208 L384.43,3.208 C382.12,3.208 380.93,5.868 380.93,7.408 L380.93,36.111 C380.93,44.862 373.86,51.933 365.178,51.933 C356.427,51.933 349.357,44.862 349.357,36.111 L349.357,6.008 C349.357,4.398 348.097,3.208 346.556,3.208 L344.106,3.208 C343.686,3.208 343.406,2.858 343.406,2.438 C343.406,2.017 343.686,1.667 344.106,1.667 C346.767,1.667 349.497,1.948 352.157,1.948 C354.818,1.948 357.548,1.667 360.208,1.667 C360.558,1.667 360.908,2.017 360.908,2.438 C360.908,2.858 360.558,3.208 360.208,3.208 L357.757,3.208 C356.217,3.208 354.957,4.398 354.957,6.008 L354.957,36.041 C354.957,42.412 360.138,47.592 366.579,47.592 C372.879,47.592 378.13,42.412 378.13,36.041 L378.13,8.808 C378.13,5.377 376.87,3.208 374.63,3.208 L371.479,3.208 C371.059,3.208 370.779,2.858 370.779,2.438 C370.779,2.017 371.059,1.667 371.479,1.667 C374.139,1.667 376.799,1.948 379.46,1.948 C382.19,1.948 384.851,1.667 387.581,1.667 C387.931,1.667 388.281,2.017 388.281,2.438 L388.281,2.438 Z M317.299,48.573 L315.689,48.573 C307.778,48.363 305.958,46.892 305.958,42.131 L305.958,27.081 L317.299,27.081 C323.88,27.081 327.52,32.331 327.52,37.582 C327.52,42.762 323.81,48.642 317.299,48.573 L317.299,48.573 Z M305.958,4.888 C305.958,4.538 307.148,4.538 309.738,4.468 L316.599,4.328 C321.71,4.257 325.42,9.088 325.42,14.338 C325.42,19.519 321.71,24.56 317.299,24.56 L305.958,24.56 L305.958,4.888 Z M323.6,25.33 C327.59,23.23 331.72,19.379 331.72,14.338 C331.72,7.758 325.84,1.738 317.299,1.807 L303.298,1.948 C300.568,1.948 297.837,1.667 295.107,1.667 C294.756,1.667 294.406,2.017 294.406,2.438 C294.406,2.858 294.756,3.208 295.107,3.208 L297.557,3.208 C299.097,3.208 300.357,4.398 300.357,6.008 L300.357,46.892 C300.357,48.432 299.097,49.693 297.557,49.693 L295.107,49.693 C294.756,49.693 294.406,49.972 294.406,50.462 C294.406,50.882 294.756,51.233 295.107,51.233 C297.837,51.163 300.847,50.953 303.298,50.953 L317.999,51.092 C327.94,51.163 333.821,44.162 333.821,37.582 C333.821,32.331 330.111,27.22 323.6,25.33 L323.6,25.33 Z M215.672,41.992 C211.752,47.873 206.921,51.933 197.54,51.933 C185.919,51.933 175.768,40.522 175.768,26.52 C175.768,12.519 185.429,1.177 197.26,1.107 C205.591,1.107 207.201,3.978 210.142,3.978 C212.732,3.978 213.642,1.807 214.412,1.807 C214.832,1.807 215.112,2.087 215.112,2.507 L216.372,15.599 C216.372,16.019 216.162,16.299 215.672,16.299 C215.112,16.299 215.112,14.689 213.432,11.958 C209.861,6.148 204.121,3.488 198.17,3.627 C189.42,3.837 182.069,14.689 182.069,26.52 C182.069,39.402 189.559,48.993 198.59,48.993 C204.681,48.993 210.631,45.282 213.992,40.452 C215.532,38.282 215.952,37.861 216.722,38.211 C217.842,38.702 216.862,40.242 215.672,41.992 L215.672,41.992 Z M165.27,50.462 C165.27,50.882 164.99,51.233 164.57,51.233 C161.91,51.163 159.319,50.953 156.659,50.953 C154.209,50.953 151.199,51.163 148.468,51.233 C148.118,51.233 147.769,50.953 147.769,50.462 C147.769,49.972 148.118,49.693 148.468,49.693 L150.919,49.693 C152.459,49.693 153.719,48.432 153.719,46.892 L153.719,6.008 C153.719,4.398 152.459,3.208 150.919,3.208 L148.468,3.208 C148.118,3.208 147.769,2.858 147.769,2.438 C147.769,2.017 148.118,1.667 148.468,1.667 C151.199,1.667 153.929,1.948 156.659,1.948 C159.319,1.948 161.91,1.667 164.57,1.667 C164.99,1.667 165.27,2.017 165.27,2.438 C165.27,2.858 164.99,3.208 164.57,3.208 L162.12,3.208 C160.58,3.208 159.319,4.398 159.319,6.008 L159.319,46.892 C159.319,48.432 160.58,49.693 162.12,49.693 L164.57,49.693 C164.99,49.693 165.27,49.972 165.27,50.462 L165.27,50.462 Z M136.223,38.981 C136.223,45.562 128.452,51.863 120.192,51.863 C111.93,51.863 110.32,49.342 107.38,49.342 C104.79,49.342 103.88,51.513 103.11,51.513 C102.69,51.513 102.409,51.233 102.409,50.813 L101.15,38.351 C101.15,37.931 101.36,37.651 101.849,37.651 C102.549,37.651 102.34,38.351 103.81,41.011 C107.45,47.453 114.521,49.203 120.471,49.062 C127.192,48.922 131.322,45.072 131.322,40.662 C131.322,35.971 127.192,32.401 116.341,28.411 C106.68,24.84 101.15,21.9 101.15,13.218 C101.15,5.658 107.1,1.107 114.381,1.107 C122.642,1.107 124.252,3.978 127.192,3.978 C129.782,3.978 130.762,1.807 131.532,1.807 C131.952,1.807 132.163,2.368 132.163,2.788 L133.423,15.529 C133.423,15.949 133.213,16.229 132.723,16.229 C132.023,16.229 132.373,15.039 130.972,12.378 C127.822,6.358 121.522,3.488 114.381,3.698 C108.78,3.837 105.28,6.708 105.28,11.749 C105.28,17.489 111.02,19.24 120.051,22.6 C130.273,26.38 136.223,29.321 136.223,38.981 L136.223,38.981 Z M60.831,30.23 L67.832,10.208 L75.043,30.23 L60.831,30.23 Z M91.634,49.693 C87.924,49.693 87.504,48.642 85.964,44.302 L70.912,1.948 L68.322,1.948 L53.27,44.302 C51.73,48.642 49.91,49.342 46.199,49.693 C45.849,49.693 45.499,50.042 45.499,50.462 C45.499,50.953 45.849,51.233 46.199,51.233 C48.93,51.233 51.24,50.953 53.97,50.953 C56.631,50.953 58.941,51.233 61.601,51.233 C62.021,51.233 62.301,50.953 62.301,50.462 C62.301,50.042 62.021,49.693 61.601,49.693 L58.451,49.483 C56.211,49.342 55.09,47.312 55.93,44.092 L59.921,32.75 L75.953,32.75 L80.013,44.092 C80.853,47.312 81.623,49.342 79.383,49.483 L76.233,49.693 C75.813,49.693 75.532,50.042 75.532,50.462 C75.532,50.953 75.813,51.233 76.233,51.233 C78.893,51.233 81.203,50.953 83.863,50.953 C86.594,50.953 88.904,51.233 91.634,51.233 C91.985,51.233 92.334,50.953 92.334,50.462 C92.334,50.042 91.985,49.693 91.634,49.693 L91.634,49.693 Z M22.892,48.573 L21.282,48.573 C13.371,48.363 11.551,46.892 11.551,42.131 L11.551,27.081 L22.892,27.081 C29.473,27.081 33.113,32.331 33.113,37.582 C33.113,42.762 29.403,48.642 22.892,48.573 L22.892,48.573 Z M11.551,4.888 C11.551,4.538 12.741,4.538 15.332,4.468 L22.192,4.328 C27.303,4.257 31.013,9.088 31.013,14.338 C31.013,19.519 27.303,24.56 22.892,24.56 L11.551,24.56 L11.551,4.888 Z M29.193,25.33 C33.183,23.23 37.314,19.379 37.314,14.338 C37.314,7.758 31.433,1.738 22.892,1.807 L8.891,1.948 C6.16,1.948 3.43,1.667 0.7,1.667 C0.35,1.667 0,2.017 0,2.438 C0,2.858 0.35,3.208 0.7,3.208 L3.15,3.208 C4.691,3.208 5.95,4.398 5.95,6.008 L5.95,46.892 C5.95,48.432 4.691,49.693 3.15,49.693 L0.7,49.693 C0.35,49.693 0,49.972 0,50.462 C0,50.882 0.35,51.233 0.7,51.233 C3.43,51.163 6.441,50.953 8.891,50.953 L23.592,51.092 C33.533,51.163 39.414,44.162 39.414,37.582 C39.414,32.331 35.704,27.22 29.193,25.33 L29.193,25.33 Z" id="logo" fill="#000000"></path>
    </g>
</svg>
