<?xml version="1.0" encoding="UTF-8"?>
<svg width="108px" height="37px" viewBox="0 0 108 37" version="1.1" xmlns="http://www.w3.org/2000/svg" xmlns:xlink="http://www.w3.org/1999/xlink">
    <!-- Generator: Sketch 50.2 (55047) - http://www.bohemiancoding.com/sketch -->
    <title>mm</title>
    <desc>Created with Sketch.</desc>
    <defs></defs>
    <g id="Page-1" stroke="none" stroke-width="1" fill="none" fill-rule="evenodd">
        <g id="mm" fill="#000000" fill-rule="nonzero">
            <path d="M71.3998647,0.524165696 C71.3998647,0.524165696 66.774694,3.58112629 66.1889737,4.14902015 C65.510346,4.76927302 63.9026447,6.8193296 63.9026447,9.32450679 C63.9026447,12.8688089 67.134205,15.3900966 68.5399338,16.1150675 C69.0934976,16.3966785 69.6723262,16.6259134 70.2688185,16.7997622 C70.2688185,16.7997622 74.7768452,14.1938946 75.2696581,13.738774 C76.4593534,12.3645766 77.1182394,10.6122187 77.1278053,8.79688909 C77.1278053,3.0575362 71.7836124,0.524165696 71.3998647,0.524165696 Z M72.2845043,14.8584513 C70.6687241,13.8273815 68.7257485,12.8446432 67.9057401,10.5448745 C66.9685876,7.93095163 67.869385,4.04027452 68.9357999,2.84810016 C70.5223898,3.88906769 71.7945849,5.34133128 72.6157392,7.04890371 C73.2650942,8.24011191 73.6300315,9.56464723 73.6821541,10.9194427 C73.6821541,12.7050192 73.2162708,14.018022 72.2845043,14.8584513 Z" id="Shape"></path>
            <path d="M84.6371436,0.524165696 C84.6371436,0.524165696 80.0321701,3.56904344 79.4262526,4.14902015 C78.7476249,4.76927302 77.1399237,6.8193296 77.1399237,9.32450679 C77.1399237,12.8688089 80.371484,15.3900966 81.7772127,16.1150675 C82.331448,16.396266 82.9101115,16.6267837 83.5060975,16.8037898 C83.5060975,16.8037898 88.0262425,14.2140327 88.5109765,13.7629397 C89.6985103,12.3874648 90.3570868,10.6359301 90.3691237,8.82105478 C90.3650842,3.0575362 85.0249308,0.524165696 84.6371436,0.524165696 Z M85.5258227,14.8584513 C83.9100425,13.8273815 81.9670669,12.8446432 81.1470584,10.5448745 C80.2099059,7.93095163 81.1107034,4.04027452 82.1771183,2.84810016 C83.7637082,3.88906769 85.0359033,5.34133128 85.8570576,7.04890371 C86.5064126,8.24011191 86.8713499,9.56464723 86.9234725,10.9194427 C86.9234725,12.7050192 86.4575892,14.018022 85.5258227,14.8584513 Z" id="Shape"></path>
            <path d="M39.9123489,20.5293347 C39.5229446,20.1263604 38.9829325,19.903109 38.4217917,19.9131094 C37.9398679,19.9168797 37.4705795,20.0672303 37.0766547,20.3440643 C36.6563268,20.5787581 36.3863281,21.012228 36.361672,21.4919349 C36.361672,23.2922793 38.7853422,20.6501632 38.7853422,23.6990685 C38.7853422,25.5477443 36.317238,30.1432542 36.317238,30.1432542 L32.3828134,20.2957329 L17.5661093,20.2957329 L17.5661093,21.1012562 L22.7446847,21.1012562 C17.3156634,22.1564916 16.8672844,26.4539579 17.8205947,30.5661539 C18.5436563,33.7278325 17.3883735,35.8584414 16.1321044,35.862469 C15.760475,35.862469 15.7281594,35.6691434 15.8089484,34.9804211 C15.8509252,34.5781154 15.5944235,34.2047201 15.2030309,34.0983732 C15.1127723,34.0706536 15.0187463,34.0570666 14.9243088,34.058097 C14.5206697,34.0856501 14.1732747,34.352583 14.0437086,34.7347365 L12.5693092,35.5402597 C13.6951344,34.2583462 14.6834408,32.8625724 15.518108,31.3757047 C16.2031539,30.144015 16.5566342,28.7564374 16.5441284,27.3480887 C16.5441284,25.4027501 16.0230393,22.1806573 13.8538544,20.2917053 L10.5213079,22.4787008 C10.0015162,21.5615796 9.23843389,20.8049133 8.31576794,20.2917053 L4.94282687,22.466618 C4.87843626,22.4769882 4.81257142,22.4610435 4.76011889,22.4223878 C4.70766635,22.3837322 4.673054,22.3256286 4.66410479,22.2612096 C4.66583947,22.2505389 4.66583947,22.2396593 4.66410479,22.2289886 L4.66410479,20.2836501 L0.370169031,20.2836501 L0.370169031,36.0839879 L4.64794699,36.0839879 L4.64794699,23.976974 C4.64794699,23.6869857 4.84991951,23.264086 5.25386455,23.264086 C5.57298113,23.264086 6.3404767,23.7071237 6.3404767,25.3665016 L6.3404767,36.0839879 L10.549584,36.0839879 L10.549584,24.1219682 C10.549584,23.8762836 10.5253473,23.6507371 10.8323455,23.6467095 C11.446342,23.6467095 12.0926541,24.4200118 12.5693092,25.9625887 C12.9159531,26.9821941 13.1065991,28.0480417 13.1348323,29.1242673 C13.1123085,31.5458018 12.5318407,33.9297715 11.4382631,36.0920431 L11.5109732,36.2168992 L11.8462476,36.8371521 L14.1850894,35.5765083 C14.6437181,36.1449894 15.3398916,36.470504 16.0715127,36.4585562 C18.773905,36.4585562 20.7249595,32.0281785 20.846143,28.487904 L23.9565198,28.5160973 L23.9565198,36.0799603 L28.2423767,36.0799603 L28.2423767,20.7750192 C28.6059272,21.5161006 34.2732761,36.1725954 34.4429331,36.3457829 C34.6610634,36.0557946 38.9953936,26.3734056 39.3710625,25.5960757 C40.1385581,23.8843388 40.5182664,22.6961921 40.5182664,22.0276078 C40.5290653,21.4668037 40.3102818,20.9258104 39.9123489,20.5293347 Z M23.9565198,27.5494695 L20.8623008,27.5494695 C20.7249595,24.1219682 21.4480212,21.3308303 23.9565198,21.2462503 L23.9565198,27.5494695 Z" id="Shape"></path>
            <path d="M17.1742826,9.48158382 C17.1742826,11.4269224 17.9821727,14.6490152 20.1473181,16.5379672 L23.7828235,14.0932042 C23.940362,14.0126519 23.9322831,14.1697289 23.940362,14.2704193 L23.940362,16.5379672 L28.21814,16.5379672 L28.21814,14.1213975 C30.827625,14.3187507 33.6148457,16.6910166 33.7441081,16.7755965 C34.5058337,16.5090721 35.2458863,16.1845645 35.9577269,15.804941 C37.1076238,15.24913 37.8737729,14.8597938 38.2561742,14.6369324 C39.8719544,13.7105807 40.6798445,12.4606772 40.6798445,10.8872218 C40.7045909,9.98677964 40.3620695,9.11481913 39.7305736,8.47065218 C38.9659913,7.7968412 38.1271445,7.21177414 37.2301538,6.72669443 C36.6565519,6.38837468 35.8728985,5.97755784 34.8872726,5.4902163 C33.1907034,4.68469309 32.3424189,4.34234572 32.3424189,3.77042424 C32.3424189,2.67088506 33.0856777,2.31645484 33.3805576,2.31645484 C33.5421356,2.31645484 33.6915953,2.43728333 33.8248971,2.67088506 C34.1663363,3.27555451 34.6643766,3.77769969 35.2669809,4.12485445 C36.0083431,4.53016324 36.7964515,4.84394204 37.6139016,5.05926138 L40.2839783,3.61334721 C40.2839783,3.61334721 37.5371521,2.77560307 36.0546738,0.524165696 C36.0546738,0.524165696 34.4388936,1.05983863 31.8980793,2.13521212 C29.9995376,2.94073533 29.0489203,4.06578275 29.0462273,5.51035438 C29.0462273,6.68641827 29.7544776,7.73091337 31.1709782,8.64383967 L35.0650084,10.6576477 C36.4545793,11.4067843 37.1453254,12.2123075 37.1453254,13.0742173 C37.1453254,13.3521228 36.9918262,14.3549992 36.3939876,14.3549992 C36.2485674,14.3549992 36.0789105,14.2381984 35.8850168,14.000569 C35.1749298,13.2097995 34.2878272,12.5971323 33.2957291,12.2123075 C32.4990155,11.8205115 31.6331219,11.5879114 30.7468359,11.5276128 L28.2221795,13.791133 L28.2221795,0.737629348 L23.9565198,0.737629348 L23.9565198,12.8446432 L23.9565198,12.490213 C23.9565198,12.993665 23.4596674,13.1749077 22.9789729,13.1708801 C22.3649764,13.1708801 21.6742304,12.4056331 21.1935358,10.8630561 C20.8569712,9.841597 20.6732218,8.7762588 20.64821,7.70137752 C20.64821,5.49424392 21.052155,3.52876728 22.4861599,0.733601732 L17.4691625,0.733601732 L17.4691625,1.56731826 L21.1289046,1.56731826 C20.0402884,2.78329048 19.0679449,4.09797404 18.2245397,5.49424392 C17.5424351,6.71362875 17.1811198,8.08537557 17.1742826,9.48158382 Z" id="Shape"></path>
            <path d="M63.6320016,27.344061 C63.6320016,25.3987225 62.8241115,22.1766296 60.6589661,20.2876777 L57.0234607,22.7324407 C56.8659222,22.812993 56.8740011,22.6559159 56.8659222,22.5552255 L56.8659222,20.2917053 L52.5921836,20.2917053 L52.5921836,36.0920431 L56.8699616,36.0920431 L56.8699616,23.9890569 L56.8699616,24.3434871 C56.8699616,23.8400351 57.366814,23.6587923 57.8475086,23.66282 C58.4615051,23.66282 59.1522511,24.428067 59.6329457,25.970644 C59.9795896,26.9902493 60.1702356,28.056097 60.1984687,29.1323226 C60.1984687,31.3434838 59.7945237,33.3049328 58.3605188,36.104126 L63.3452006,36.104126 L63.3452006,35.2986028 L59.7096952,35.2986028 C60.8040191,34.0843711 61.7805407,32.7695246 62.6261784,31.3716771 C63.3052284,30.1384919 63.651792,28.7507477 63.6320016,27.344061 Z" id="Shape"></path>
            <path d="M50.1361978,31.6415274 C49.7077872,32.039058 49.682501,32.7071806 50.0796455,33.1357729 C50.1438484,33.2045522 50.2172486,33.2641845 50.2977758,33.312988 C51.1339421,33.8204677 51.3076384,34.0339313 50.9521668,34.3964168 C50.7037365,34.6562015 50.3961145,34.8523924 50.0554088,34.9683382 L49.8574757,35.0609734 C49.4937223,35.279559 49.0675121,35.371634 48.6456406,35.3227685 C43.7659845,35.3227685 44.0770222,30.3043588 44.0770222,29.3457862 C44.0770222,28.3872136 44.7192948,28.3227717 45.0586087,28.3227717 L47.4822789,28.3227717 L47.4822789,26.9654651 L45.1393977,26.9654651 C44.5779141,26.9654651 44.0608644,26.6352006 44.0608644,25.6887108 C44.0608644,24.7422211 45.0141747,20.8998753 47.8821845,20.8998753 C48.9930334,20.8998753 50.7097998,20.9804277 50.7097998,22.1081602 L50.7097998,24.6656964 L51.5702027,24.6656964 L51.5702027,21.4033274 C51.6025183,20.9079306 51.3561118,20.8434887 50.523985,20.5978041 C49.4196766,20.2635486 48.2727746,20.0899147 47.1187284,20.0822693 C42.8291282,20.2117055 39.4473776,23.7669769 39.5447589,28.0448662 C39.518088,32.498602 43.0503127,36.1650664 47.5145945,36.3175896 C49.3687022,36.3175896 49.7686078,36.1323193 50.6855631,35.6167844 C51.0502608,35.4239649 51.3783531,35.1690753 51.6550312,34.8636202 C52.6810516,33.8043572 52.8426296,32.2778907 52.1236074,31.6052788 C51.5428655,31.1269063 50.6990042,31.1422976 50.1361978,31.6415274 Z" id="Shape"></path>
            <path d="M4.64794699,4.43498089 C4.64794699,4.14499253 4.84991951,3.72209285 5.25386455,3.72209285 C5.57298113,3.72209285 6.3404767,4.16513062 6.3404767,5.82450843 L6.3404767,16.5419948 L10.549584,16.5419948 L10.549584,4.57191984 C10.549584,4.32623526 10.5253473,4.10068876 10.8323455,4.09666114 C11.446342,4.09666114 12.0926541,4.86996343 12.5693092,6.41254038 C12.9159531,7.43214574 13.1065991,8.49799336 13.1348323,9.57421898 C13.1108691,11.9947621 12.5290084,14.3773981 11.4342236,16.5379672 C10.7757932,17.9154118 11.9149182,19.4297955 12.7026111,19.4297955 C13.2294637,19.4331672 13.6681438,19.0275188 13.7043948,18.5034438 C13.7131177,18.27627 13.6306196,18.0550071 13.4751805,17.8886832 C13.3197415,17.7223592 13.1041968,17.6247083 12.8763074,17.6173683 L12.7793606,17.6173683 C12.0886146,17.7059758 11.9068393,17.8106938 11.894721,17.295159 C11.894721,16.6990718 12.549112,15.9821561 12.549112,15.9821561 C13.6815118,14.6890713 14.6727163,13.2795278 15.5059896,11.777325 C16.18734,10.5543774 16.5407345,9.17684725 16.53201,7.77790222 C16.53201,5.83256366 16.0109209,2.61047082 13.8417361,0.721518883 L10.5091895,2.91656964 C9.9916933,2.00079986 9.22777211,1.24748688 8.30364959,0.741656964 L4.93070852,2.91656964 C4.86631791,2.9269398 4.80045307,2.91099516 4.74800054,2.87233948 C4.695548,2.8336838 4.66093565,2.77558026 4.65198644,2.71116122 C4.65372112,2.70049054 4.65372112,2.68961097 4.65198644,2.67894029 L4.65198644,0.741656964 L0.370169031,0.741656964 L0.370169031,16.5419948 L4.64794699,16.5419948 L4.64794699,4.43498089 Z" id="Shape"></path>
            <path d="M103.194379,15.9660457 C104.320204,14.6841322 105.30851,13.2883584 106.143177,11.8014907 C106.825031,10.5772845 107.178436,9.19832577 107.169198,7.7980403 C107.169198,5.85270174 106.648109,2.6306089 104.478924,0.741656964 L101.150417,2.91656964 C100.630625,1.99944835 99.8675428,1.24278207 98.9448768,0.729574115 L95.5719358,2.91656964 C95.5075452,2.9269398 95.4416803,2.91099516 95.3892278,2.87233948 C95.3367753,2.8336838 95.3021629,2.77558026 95.2932137,2.71116122 C95.2949484,2.70049054 95.2949484,2.68961097 95.2932137,2.67894029 L95.2932137,0.741656964 L91.0113963,0.741656964 L91.0113963,16.5419948 L95.2891742,16.5419948 L95.2891742,4.43498089 C95.2891742,4.14499253 95.4911468,3.72209285 95.8950918,3.72209285 C96.2142084,3.72209285 96.981704,4.16513062 96.981704,5.82450843 L96.981704,16.5419948 L101.190811,16.5419948 L101.190811,4.57191984 C101.190811,4.32623526 101.166575,4.10068876 101.473573,4.09666114 C102.087569,4.09666114 102.733881,4.86996343 103.210536,6.41254038 C103.55718,7.43214574 103.747826,8.49799336 103.77606,9.57421898 C103.753536,11.9957534 103.173068,14.3797232 102.07949,16.5419948 L102.1522,16.6628233 L102.487475,17.2830761 L106.228006,15.2692681 L105.824061,14.5442972 L103.194379,15.9660457 Z" id="Shape"></path>
            <path d="M63.8703291,11.777325 L60.7882285,10.1662785 C62.7675592,10.1662785 64.08442,7.1214008 64.08442,5.66340379 C64.08442,4.12485445 62.9129794,0.773877892 58.7644638,0.773877892 L41.0393555,0.773877892 L41.0393555,16.5379672 L45.3171335,16.5379672 L45.3373308,7.45972055 C45.3373308,7.05695895 45.8341831,6.92807523 46.3148777,6.92807523 C46.9288742,6.92807523 47.6196202,7.52416241 48.1003148,8.724392 C48.4423288,9.50051892 48.6342012,10.3340854 48.6658379,11.1812378 C48.6658379,12.8970022 48.2618928,14.3791649 46.8278879,16.55005 L47.231833,17.2750209 L50.972364,15.2612129 L50.568419,14.536242 L48.5204177,15.6639745 C49.461426,14.8352783 50.321628,13.9196085 51.0895081,12.9292232 C51.7547828,12.0265937 52.1141849,10.9360274 52.1155285,9.81587595 C52.0380181,7.62476463 50.9382613,5.59557916 49.142493,4.33026287 L45.5069877,6.23129765 C45.3615675,6.2917119 45.357528,6.19102149 45.3494491,6.11449679 L45.3817647,1.56731826 L52.604302,1.56731826 L52.604302,16.5379672 L56.88208,16.5379672 L56.88208,8.36996178 C57.1131195,8.95508551 57.6199533,9.38802628 58.2352958,9.52588759 C58.9712383,9.7916094 59.4103397,10.5450584 59.277474,11.3141491 C58.873529,14.1657013 60.9417276,16.55005 62.6544546,16.55005 L66.7423784,16.55005 L66.7423784,15.7445268 L65.1508349,15.7445268 C61.4870534,15.7203611 63.5431336,12.2928598 63.8703291,11.777325 Z M59.0229887,9.0506289 C58.2554931,9.0264632 58.7765822,8.67203299 58.7887005,8.10413912 C58.7540979,7.58807092 58.3088295,7.19623237 57.7909563,7.22611882 C57.3643386,7.25872244 57.0032508,7.55285399 56.8861194,7.96317256 L56.8861194,3.00517719 C56.9986356,2.23593738 57.6460232,1.65652029 58.42515,1.6277325 C59.5561961,1.6277325 60.6428083,2.69102314 60.6428083,5.25258695 C60.6428083,7.81415077 59.9076283,9.05868413 59.0229887,9.03049082 L59.0229887,9.0506289 Z" id="Shape"></path>
        </g>
    </g>
</svg>