<?xml version="1.0" encoding="UTF-8" standalone="no"?>
<svg width="19px" height="143px" viewBox="0 0 19 143" version="1.1" xmlns="http://www.w3.org/2000/svg" xmlns:xlink="http://www.w3.org/1999/xlink" xmlns:sketch="http://www.bohemiancoding.com/sketch/ns">
    <!-- Generator: Sketch 3.3.1 (12005) - http://www.bohemiancoding.com/sketch -->
    <title>index.html</title>
    <desc>Created with Sketch.</desc>
    <defs></defs>
    <g id="Page-1" stroke="none" stroke-width="1" fill="none" fill-rule="evenodd" sketch:type="MSPage">
        <path d="M-60.3250098,67.4658536 L-54.7519073,67.4658536 L-54.7519073,78.9788659 L-50.4330486,78.9788659 L-50.4330486,80.6709119 L-61.247944,80.6709119 L-61.247944,78.9788659 L-56.9290853,78.9788659 L-56.9290853,69.1578996 L-60.3250098,69.1578996 L-60.3250098,67.4658536 Z M-56.9290853,62.3187207 L-54.7519073,62.3187207 L-54.7519073,65.0638582 L-56.9290853,65.0638582 L-56.9290853,62.3187207 Z M-37.0386704,72.4591642 L-37.0386704,80.6709119 L-39.227681,80.6709119 L-39.227681,72.4591642 C-39.227681,71.2680209 -39.4367196,70.3924255 -39.8548029,69.8323515 C-40.2728863,69.2722775 -40.9276109,68.9922447 -41.8189962,68.9922447 C-42.8365954,68.9922447 -43.619504,69.3531321 -44.1677454,70.0749175 C-44.7159868,70.796703 -44.9901034,71.8320355 -44.9901034,73.180946 L-44.9901034,80.6709119 L-47.1672815,80.6709119 L-47.1672815,67.4185236 L-44.9901034,67.4185236 L-44.9901034,69.4063819 C-44.6035735,68.6490988 -44.079005,68.0752288 -43.4163823,67.6847547 C-42.7537596,67.2942805 -41.9688789,67.0990464 -41.0617169,67.0990464 C-39.7128063,67.0990464 -38.7050827,67.5427603 -38.0385158,68.4302015 C-37.3719489,69.3176426 -37.0386704,70.6606168 -37.0386704,72.4591642 L-37.0386704,72.4591642 Z M-24.7328813,69.1105696 L-24.7328813,62.2595582 L-22.5557032,62.2595582 L-22.5557032,80.6709119 L-24.7328813,80.6709119 L-24.7328813,79.0025309 C-25.0957461,79.6572653 -25.5789013,80.1561969 -26.1823613,80.4993408 C-26.7858213,80.8424847 -27.4819591,81.0140541 -28.2707957,81.0140541 C-29.872134,81.0140541 -31.1322815,80.3928546 -32.0512761,79.150437 C-32.9702707,77.9080194 -33.4297611,76.1942976 -33.4297611,74.0092203 C-33.4297611,71.8556964 -32.9682987,70.1656394 -32.0453599,68.9389985 C-31.1224211,67.7123577 -29.8642456,67.0990464 -28.2707957,67.0990464 C-27.4740707,67.0990464 -26.7720167,67.2706158 -26.1646126,67.6137597 C-25.5572084,67.9569036 -25.0799694,68.4558353 -24.7328813,69.1105696 L-24.7328813,69.1105696 Z M-31.1342582,74.0565503 C-31.1342582,75.7446606 -30.8660577,77.0186125 -30.3296489,77.8784444 C-29.79324,78.7382763 -29.0004711,79.1681857 -27.9513185,79.1681857 C-26.9021658,79.1681857 -26.1034808,78.7343321 -25.5552393,77.8666119 C-25.0069979,76.9988917 -24.7328813,75.7288838 -24.7328813,74.0565503 C-24.7328813,72.3763284 -25.0069979,71.1043485 -25.5552393,70.2405724 C-26.1034808,69.3767963 -26.9021658,68.9449148 -27.9513185,68.9449148 C-29.0004711,68.9449148 -29.79324,69.3748243 -30.3296489,70.2346562 C-30.8660577,71.094488 -31.1342582,72.36844 -31.1342582,74.0565503 L-31.1342582,74.0565503 Z M-7.04330947,72.9561287 L-7.04330947,74.0210528 L-16.4738036,74.0210528 L-16.4738036,74.0920477 C-16.5369106,75.8984835 -16.1917997,77.1961002 -15.4384608,77.9849368 C-14.6851219,78.7737734 -13.6221805,79.1681857 -12.2496049,79.1681857 C-11.5554287,79.1681857 -10.8297099,79.0577503 -10.0724268,78.836876 C-9.31514367,78.6160018 -8.50659831,78.2807513 -7.64676643,77.8311144 L-7.64676643,79.99646 C-8.47504484,80.3356597 -9.2737299,80.5900557 -10.0428456,80.7596556 C-10.8119612,80.9292555 -11.5554286,81.0140541 -12.2732698,81.0140541 C-14.3321333,81.0140541 -15.9413358,80.3967988 -17.1009256,79.1622695 C-18.2605153,77.9277403 -18.8403015,76.2258509 -18.8403015,74.0565503 C-18.8403015,71.9424682 -18.2723477,70.2543833 -17.136423,68.9922447 C-16.0004984,67.7301062 -14.4859549,67.0990464 -12.5927471,67.0990464 C-10.9046368,67.0990464 -9.57349502,67.6709444 -8.59928184,68.8147574 C-7.62506867,69.9585704 -7.10641639,71.3390138 -7.04330947,72.9561287 L-7.04330947,72.9561287 Z M-9.22048754,72.3171743 C-9.31514793,71.4021239 -9.64842639,70.6113271 -10.2203329,69.9447602 C-10.7922394,69.2781932 -11.6145892,68.9449148 -12.687407,68.9449148 C-13.7365596,68.9449148 -14.6003227,69.2919977 -15.2787222,69.9861739 C-15.9571216,70.6803501 -16.3278693,71.4612866 -16.3909762,72.3290068 L-9.22048754,72.3171743 Z M7.52248515,67.4185236 L2.77765685,73.760738 L7.98395224,80.6709119 L5.46363197,80.6709119 L1.5825754,75.3581241 L-2.28664867,80.6709119 L-4.80696895,80.6709119 L0.39932645,73.760738 L-4.34550185,67.4185236 L-1.93167399,67.4185236 L1.5825754,72.2106819 L5.07315982,67.4185236 L7.52248515,67.4185236 Z M13.4860599,75.8905861 L17.6510962,75.8905861 L17.6510962,80.6709119 L13.4860599,80.6709119 L13.4860599,75.8905861 Z M35.9086275,72.4591642 L35.9086275,80.6709119 L33.719617,80.6709119 L33.719617,72.4591642 C33.719617,71.2680209 33.5105784,70.3924255 33.092495,69.8323515 C32.6744116,69.2722775 32.0196871,68.9922447 31.1283018,68.9922447 C30.1107026,68.9922447 29.327794,69.3531321 28.7795526,70.0749175 C28.2313112,70.796703 27.9571946,71.8320355 27.9571946,73.180946 L27.9571946,80.6709119 L25.7800165,80.6709119 L25.7800165,62.2595582 L27.9571946,62.2595582 L27.9571946,69.4063819 C28.3437245,68.6490988 28.868293,68.0752288 29.5309157,67.6847547 C30.1935384,67.2942805 30.978419,67.0990464 31.8855811,67.0990464 C33.2344917,67.0990464 34.2422153,67.5427603 34.9087822,68.4302015 C35.5753491,69.3176426 35.9086275,70.6606168 35.9086275,72.4591642 L35.9086275,72.4591642 Z M45.3272892,63.655792 L45.3272892,67.4185236 L50.2732698,67.4185236 L50.2732698,69.1105696 L45.3272892,69.1105696 L45.3272892,76.3047233 C45.3272892,77.2828806 45.512663,77.965214 45.8834162,78.351744 C46.2541694,78.7382739 46.9010057,78.931536 47.8239445,78.931536 L50.2732698,78.931536 L50.2732698,80.6709119 L47.6109597,80.6709119 C45.978068,80.6709119 44.8263838,80.3435497 44.1558728,79.6888153 C43.4853617,79.0340809 43.1501111,77.9060615 43.1501111,76.3047233 L43.1501111,69.1105696 L39.6121968,69.1105696 L39.6121968,67.4185236 L43.1501111,67.4185236 L43.1501111,63.655792 L45.3272892,63.655792 Z M60.6503632,68.7674274 C60.9185676,68.1994651 61.2597343,67.7794159 61.6738735,67.5072673 C62.0880127,67.2351187 62.5869444,67.0990464 63.1706834,67.0990464 C64.2356128,67.0990464 64.9869684,67.5112074 65.4247727,68.3355416 C65.862577,69.1598758 66.0814759,70.7118885 66.0814759,72.9916262 L66.0814759,80.6709119 L64.0936176,80.6709119 L64.0936176,73.0862861 C64.0936176,71.2167434 63.9890983,70.055199 63.7800566,69.601618 C63.571015,69.1480369 63.190407,68.9212498 62.6382214,68.9212498 C62.0071521,68.9212498 61.5752706,69.1638134 61.3425638,69.6489479 C61.109857,70.1340824 60.9935054,71.2798504 60.9935054,73.0862861 L60.9935054,80.6709119 L59.0056471,80.6709119 L59.0056471,73.0862861 C59.0056471,71.1930783 58.8932396,70.0256177 58.6684212,69.5838692 C58.4436027,69.1421207 58.0393301,68.9212498 57.455591,68.9212498 C56.8797403,68.9212498 56.4794117,69.1638134 56.2545933,69.6489479 C56.0297749,70.1340824 55.9173674,71.2798504 55.9173674,73.0862861 L55.9173674,80.6709119 L53.9413416,80.6709119 L53.9413416,67.4185236 L55.9173674,67.4185236 L55.9173674,68.5544426 C56.1776834,68.0811407 56.5030736,67.7202534 56.8935477,67.4717698 C57.2840218,67.2232863 57.7277358,67.0990464 58.2247028,67.0990464 C58.8242186,67.0990464 59.3231503,67.2370908 59.7215127,67.5131836 C60.1198752,67.7892764 60.4294889,68.2073535 60.6503632,68.7674274 L60.6503632,68.7674274 Z M75.7486198,75.8787537 C75.7486198,76.856911 75.9280774,77.5944622 76.2869981,78.0914292 C76.6459187,78.5883962 77.1764034,78.836876 77.8784679,78.836876 L80.4224532,78.836876 L80.4224532,80.6709119 L77.6654831,80.6709119 C76.3639028,80.6709119 75.3561791,80.2548069 74.642282,79.4225843 C73.9283849,78.5903617 73.5714417,77.4090966 73.5714417,75.8787537 L73.5714417,63.8924418 L70.0808573,63.8924418 L70.0808573,62.1885633 L75.7486198,62.1885633 L75.7486198,75.8787537 Z" id="index.html" fill="#000000" sketch:type="MSShapeGroup" transform="translate(9.587255, 71.601309) rotate(-270.000000) translate(-9.587255, -71.601309) "></path>
    </g>
</svg>