<?xml version="1.0" encoding="UTF-8" standalone="no"?>
<svg width="80px" height="156px" viewBox="0 0 80 156" version="1.1" xmlns="http://www.w3.org/2000/svg" xmlns:xlink="http://www.w3.org/1999/xlink" xmlns:sketch="http://www.bohemiancoding.com/sketch/ns">
    <!-- Generator: Sketch 3.3.1 (12005) - http://www.bohemiancoding.com/sketch -->
    <title>☟</title>
    <desc>Created with Sketch.</desc>
    <defs></defs>
    <g id="Page-1" stroke="none" stroke-width="1" fill="none" fill-rule="evenodd" sketch:type="MSPage">
        <path d="M17.6104284,27.2013768 C17.443236,29.7092622 16.9416589,30.7124164 14.2665812,33.7218789 C11.2571187,37.2329184 6.07415553,45.5925364 3.90065484,50.7754996 C1.89434652,55.2896933 0.724,60.4726565 0.724,65.4884273 C0.724,68.8322745 0.89119236,69.8354287 2.22873124,75.0183918 C3.06469304,78.6966237 3.06469304,78.6966237 4.56942428,85.7187029 C5.40538608,89.2297424 8.74923329,93.5767438 14.2665812,98.0909375 C15.7713124,107.45371 16.1056971,111.299134 16.7744666,120.327521 C17.9448131,139.721835 18.1120055,141.560951 18.7807749,145.406375 C20.1183138,151.926877 23.1277763,155.103532 27.8091623,155.103532 C29.982663,155.103532 32.1561637,154.100378 33.4937026,152.261262 C36.5031651,148.415838 37.3391269,142.89849 37.3391269,127.683985 L37.3391269,109.125633 C40.3485894,110.964749 42.1877053,111.633519 45.0299754,111.633519 C50.7145157,111.633519 54.8943247,107.620902 55.2287094,101.769169 C57.4022101,102.437939 58.5725566,102.772324 59.7429031,102.772324 C65.5946357,102.772324 70.6104065,97.9237452 70.6104065,92.4063973 C70.6104065,91.4032431 70.4432142,90.400089 69.9416371,88.7281654 C70.7775989,89.0625501 71.4463683,89.0625501 72.1151378,89.0625501 C76.1277544,89.0625501 79.638794,84.7155487 79.638794,79.6997779 C79.638794,77.8606619 79.1372169,75.3527765 77.9668704,71.3401599 C78.1340628,68.3306974 78.3012551,65.6556197 78.3012551,64.4852731 C78.3012551,56.6272322 76.6293315,52.2802308 67.9353288,37.9016879 C64.9258663,33.0531094 64.2570969,31.5483782 62.7523656,27.7029539 C66.4305975,24.1919143 67.099367,22.0184137 67.099367,12.9900262 C67.099367,8.14144776 66.2634052,6.80390888 62.5851733,5.13198527 C55.8974789,2.12252279 46.701899,0.61779155 34.8312415,0.61779155 C19.7839291,0.61779155 12.9290423,2.95848459 12.2602729,8.47583248 C12.0930805,9.81337136 11.7586958,15.3307192 11.7586958,16.5010658 C11.7586958,20.8480671 12.5946576,22.185606 17.6104284,27.2013768 L17.6104284,27.2013768 Z M32.6577408,114.141404 C32.6577408,135.709219 32.3233561,143.901644 31.4873943,146.743914 C30.9858172,148.58303 29.3138936,150.422146 27.9763547,150.422146 C24.9668922,150.422146 23.1277763,147.078299 22.6261992,141.059374 C21.7902374,127.015216 20.2855061,108.624056 19.4495443,101.601977 C23.2949686,103.94267 25.1340846,105.113017 25.4684693,105.280209 C28.6451241,106.617748 30.1498554,106.952133 32.6577408,107.119325 L32.6577408,114.141404 Z M67.6009441,46.4284982 C71.6135607,53.1161926 73.619869,58.6335405 74.1214461,64.6524655 C68.4369059,57.463194 63.7555198,54.1193468 59.2413261,54.1193468 C53.8911705,54.1193468 50.2129386,57.463194 50.2129386,62.3117725 C48.8753997,62.1445801 48.0394379,61.9773877 47.3706685,61.9773877 C42.8564748,61.9773877 39.8470123,65.1540426 39.1782428,70.5041981 C38.0078963,69.8354287 37.5063192,69.6682363 36.001588,69.3338516 C39.8470123,61.9773877 40.3485894,61.1414259 41.0173588,58.9679252 C41.6861282,56.4600398 42.6892824,49.4379607 42.6892824,46.5956906 C42.6892824,42.583074 41.3517435,39.5736115 39.5126276,39.5736115 C38.342281,39.5736115 37.6735116,40.4095733 37.6735116,41.7471122 L37.6735116,42.4158816 C38.0078963,45.4253441 38.1750887,47.26446 38.1750887,47.7660371 C38.1750887,54.7881162 37.1719345,58.9679252 34.162472,63.3149266 C30.6514325,68.9994669 27.4747776,72.5105064 23.462161,75.8543536 C23.9637381,77.6934696 23.9637381,77.6934696 25.3012769,81.3717015 C26.4716235,84.5483564 26.4716235,84.5483564 28.3107394,85.7187029 C32.8249332,89.0625501 35.1656262,92.9079744 35.1656262,97.4221681 C35.1656262,100.431631 33.8280873,102.437939 31.9889714,102.437939 C30.6514325,102.437939 28.6451241,101.601977 24.9668922,99.4284764 C17.2760437,95.081475 12.5946576,90.901666 10.5883492,87.0562418 C8.58204093,83.2108175 5.23819372,69.6682363 5.23819372,65.3212349 C5.23819372,61.9773877 6.07415553,58.1319634 7.24450205,54.7881162 C9.25081037,49.9395378 14.4337735,41.0783427 18.4463902,35.8953795 C21.4558527,32.0499553 22.6261992,29.5420699 22.6261992,27.0341845 C22.6261992,26.8669921 22.4590068,26.365415 22.2918145,25.6966456 C25.1340846,24.3591067 25.802854,24.1919143 28.3107394,23.8575296 C30.3170477,23.6903373 38.1750887,23.3559525 40.3485894,23.3559525 C42.1877053,23.3559525 45.8659372,23.6903373 48.3738226,24.1919143 C52.5536317,24.8606838 54.2255553,25.5294532 57.4022101,27.7029539 C59.0741337,30.7124164 59.0741337,30.7124164 63.0867503,38.7376497 L67.6009441,46.4284982 Z M38.342281,103.775478 C39.6798199,99.9300535 39.6798199,99.9300535 39.6798199,97.9237452 C39.6798199,91.4032431 37.0047422,86.22028 31.6545866,82.3748557 C29.4810859,80.8701244 28.9795089,80.201355 28.9795089,78.8638161 C28.9795089,76.5231231 31.821779,73.5136606 34.162472,73.5136606 C36.001588,73.5136606 38.0078963,74.6840071 39.8470123,76.6903154 C41.1845512,78.0278543 42.020513,79.3653932 45.6987449,86.22028 C47.8722456,90.5672813 47.8722456,90.5672813 49.0425921,93.5767438 C50.5473233,98.0909375 51.0489004,99.5956688 51.0489004,100.766015 C51.0489004,104.109862 48.2066303,107.119325 45.0299754,107.119325 C43.0236671,107.119325 41.0173588,106.116171 38.342281,103.775478 L38.342281,103.775478 Z M48.2066303,66.3243891 C51.3832851,66.3243891 54.3927476,69.3338516 59.2413261,77.5262772 C63.5883274,85.0499334 65.5946357,89.5641272 65.5946357,92.4063973 C65.5946357,93.5767438 65.260251,94.4127056 64.7586739,95.2486674 C63.7555198,96.5862063 61.5820191,97.9237452 60.0772879,97.9237452 C58.9069413,97.9237452 57.4022101,97.2549757 55.8974789,95.9174368 C54.7271323,94.7470903 54.7271323,94.7470903 52.8880164,90.901666 C51.7176698,88.3937806 47.0362838,79.1982008 45.8659372,77.1918925 C43.8596289,74.0152377 43.5252442,73.0120835 43.5252442,71.3401599 C43.5252442,68.6650821 45.6987449,66.3243891 48.2066303,66.3243891 L48.2066303,66.3243891 Z M58.739749,58.8007329 C61.080442,58.8007329 64.4242892,60.9742336 67.6009441,64.3180808 C72.7839072,70.002621 75.2917926,74.8511995 75.2917926,79.0310085 C75.2917926,82.2076633 73.619869,84.5483564 71.4463683,84.5483564 C70.6104065,84.5483564 69.6072524,84.0467793 68.4369059,82.8764328 C66.9321746,81.3717015 66.9321746,81.2045091 62.4179809,73.6808529 C60.2444802,70.1698134 58.4053643,67.4947356 56.7334407,65.9900044 C55.3959018,64.6524655 55.0615171,63.9836961 55.0615171,62.9805419 C55.0615171,60.6398488 56.7334407,58.8007329 58.739749,58.8007329 L58.739749,58.8007329 Z M18.7807749,21.5168366 C17.6104284,21.5168366 16.4400819,19.5105282 16.4400819,17.6714123 C16.4400819,17.0026428 16.4400819,16.5010658 16.6072742,15.4979116 L16.6072742,12.9900262 L16.6072742,12.1540644 C16.6072742,8.64302484 17.1088513,7.47267832 19.1151596,6.63671652 C21.7902374,5.63356235 27.8091623,4.96479291 35.8343956,4.96479291 C45.6987449,4.96479291 51.5504775,5.80075471 58.2381719,8.14144776 C61.5820191,9.47898664 62.0835962,10.1477561 62.0835962,13.3244109 C62.0835962,21.0152595 61.5820191,23.0215678 60.0772879,23.0215678 C59.5757108,23.0215678 58.739749,22.6871831 55.8974789,21.5168366 C51.7176698,19.6777206 45.0299754,18.6745664 37.3391269,18.6745664 C29.3138936,18.6745664 24.4653151,19.3433359 20.1183138,21.1824519 C19.6167367,21.3496442 19.1151596,21.5168366 18.7807749,21.5168366 L18.7807749,21.5168366 Z" id="☟" fill="#000000" sketch:type="MSShapeGroup"></path>
    </g>
</svg>